<svg width="1917" height="839" VeiwBox="0 0 1917 839" fill="none" xmlns="http://www.w3.org/2000/svg"> 
<path fill-rule="evenodd" clip-rule="evenodd" d="M1794.5 208H1257.5L1266 214.5L1291 236.5L1311 257.5H1759.5L1734.5 293.5H1332L1341.5 311.5L1349.5 328.5L1354 343H1701L1676 379L1363 378.5L1365 403V429H1641L1616.5 464.5H1362.5L1361 469.5L1356.5 486.5L1353.5 496L1350 506.5L1346 514H1583.5L1558.5 550L1330 550.5L1327 554.5L1313 574L1302.5 587L1289.5 600H1525.5L1794.5 208Z" fill="white" stroke="white"/>
<path fill-rule="evenodd" clip-rule="evenodd" d="M179.5 642.5V713H250.5V642.5H179.5Z" fill="#C9C9C9" stroke="#C9C9C9"/>
<path d="M283.5 713H250.5V642.883H283.5V713Z" fill="url(#paint0_linear_0_1)" stroke="#C9C9C9"/>
<path fill-rule="evenodd" clip-rule="evenodd" d="M286.5 403.5V419.5V434.5L287.5 449.5L289.5 465.5L296.5 489.5L303.5 507L309.5 519.5L320.5 539L337 561.5L355.5 581L375 597.5L398.5 612.5L427 626.5L449.5 634L469.5 638.5L482.5 640.5H552.5L565 638.5L578.5 635.5L597 630L629.5 617L646 609L663.5 599L684 586L710.5 566.5L745.5 538.5L763.5 523.5L785.5 504.5L831 465L862 438L891 413.5L920 388.5L946 366.5L964 352L982 339L1000.5 326L1032.5 309L1062.5 300L1079.5 298V238.5H1109.5V298L1121 299L1145.5 308L1162 316.5L1184 334L1204.5 359.5L1216.5 388L1219 406.5H1281.5V436.5H1219L1215.5 450L1210.5 464L1202 483L1188.5 500L1178.5 509.5L1157.5 525.5L1134 536.5L1109.5 543V602.5H1079.5V543L1058 540L1043 536L1017.5 524L992 508.5L964 488L909.5 443.5L872.5 477L832.5 511.5L857.5 533.5L901.5 569L937 594.5L969.5 612.5L996 625L1033 636.5L1056 640H1124L1145 637.5L1166.5 631.5L1191.5 621L1217.5 606L1240 589.5L1254 577L1275.5 552.5L1286 538L1302.5 508L1313.5 476L1318.5 453L1320.5 431.5V415L1319.5 401L1318.5 390L1317.5 380.5L1314.5 367L1309.5 350.5L1305.5 338.5L1297.5 320L1284.5 298.5L1270.5 278.5L1256.5 264.5L1243 251.5L1227 239L1209.5 228.5L1190.5 218L1162 207L1139 201L1115.5 198.5H1072L1052 201L1037 203.5L1023.5 206.5L1006 212.5L988.5 219.5L972 227.5L957 235.5L941.5 245L919.5 260L894 278.5L870 297.5L808 349.5L752.5 397L686 453.5L644.5 488L625.5 502L609.5 512.5L586.5 526L563.5 535.5L543.5 540.5L527.5 542.5V602.5H497.5V542.5L481 539L466 534.5L446 524.5L438 518.5L425 508.5L414.5 497L404 482L395.5 466.5L390.5 448.5L389.5 437L324.5 436.5V406.5H389.5L392 388.5L399 369L406 357.5L420 337L434 324.5L458 309.5L489.5 298.5L497.5 297.5V238H527.5V297.5L536 298.5L541.5 299.5L555.5 302.5L573 308.5L598 320.5L619.5 334L642 350.5L659.5 365L699 398L776.5 329.5L711.5 275.5L682.5 254.5L662.5 241.5L645.5 231.5L629.5 223.5L603.5 212.5L584.5 206.5L568 202.5L546.5 199.5L535.5 198.5H491L479.5 199.5L464.5 201.5L443.5 207.5L426.5 213.5L413.5 219.5L396.5 228.5L388.5 233.5L371.5 245.5L360.5 255L350.5 264.5L341.5 273.5L336.5 279.5L329.5 288.5L317.5 306.5L307.5 324.5L306.5 326.5L305.5 328.5L304.5 330.5L303.5 332.5L302.5 334.5L301.5 337L300.5 339.5L299.5 342L298.5 344.5L297.5 347.5L296.5 350.5L293.5 360L292.5 363.5L291.5 367L290.5 370.5L289.5 374.5L288.5 379.5L287.5 386L286.5 403.5Z" fill="white" stroke="white"/>
<path fill-rule="evenodd" clip-rule="evenodd" d="M29 643H176.5H1894L1916 642L1894 640.5L1807 640H176.5H29L2 641.5L29 643Z" fill="white" stroke="white"/>
<path d="M1807 715.5H177V713.5L1807 713.9H1879.5L1898 714.7L1879.5 715.1L1807 715.5Z" fill="white" stroke="white"/>
<path fill-rule="evenodd" clip-rule="evenodd" d="M177 125V715H180V125H177Z" fill="white" stroke="white"/>
<path fill-rule="evenodd" clip-rule="evenodd" d="M1807 125H177V126.5H1807L1901 125.5L1807 125Z" fill="white"/>
<path d="M1901 125.5L1807 126.5H177V125H1807L1901 125.5ZM1901 125.5H1915M176.5 196H20.2641L1 197L20.2641 198L176.5 198.5H1805L1864.5 198L1912.5 197.5L1864.5 196.5H1805L176.5 196Z" stroke="white"/>
<path d="M20 198L176.5 198.5H1806L1912.5 197.5L1865 196.5H1806L176.5 196H20L1 197L20 198Z" fill="white" stroke="white"/>
<path fill-rule="evenodd" clip-rule="evenodd" d="M1804 796V715.5V124V14.5L1805 0.5L1805.5 14.5V124V715.5V796L1804.5 837L1804 796Z" fill="white" stroke="white"/>
<path d="M1381 811.5L1447 715.5L1821.5 170.5L1853 123L1873.5 92L1851 123L1444.5 715.5L1380.5 810L1365 833.5L1381 811.5Z" fill="white" stroke="white"/>
<path fill-rule="evenodd" clip-rule="evenodd" d="M283 44.5V124.5L283.5 829.73L284 838L284.5 829.73V124.5V44.5L284 5.5L283 44.5Z" fill="white" stroke="white"/>
<defs>
<linearGradient id="paint0_linear_0_1" x1="250" y1="678" x2="283" y2="678" gradientUnits="userSpaceOnUse">
<stop stop-color="#C9C9C9"/>
<stop offset="1" stop-color="#6E6E6E"/>
</linearGradient>
</defs>
</svg>
